#!OML:ASF F:\VICON\USERDATA\INSTALL\rory3\rory3.ASF
:FULLY-SPECIFIED
:DEGREES
373
root -2.49817 18.6194 2.17253 -5.49839 7.63713 -0.947754
lowerback 6.92911 -1.6195 -0.787
upperback 1.07384 -2.21937 -0.222585
thorax -2.75285 -1.09746 0.41542
lowerneck -0.164544 -10.0395 -10.4914
upperneck 11.7921 -13.8951 6.6202
head 4.76822 -7.01219 2.99465
rclavicle 6.27958e-015 1.70955e-014
rhumerus 17.9302 -0.523434 -37.6845
rradius 29.4189
rwrist 15.7038
rhand -14.0343 1.87893
rfingers 7.12502
rthumb 12.096 -27.7514
lclavicle 6.27958e-015 1.70955e-014
lhumerus 9.7514 -1.23864 40.1265
lradius 33.6371
lwrist -0.054747
lhand -7.19199 26.722
lfingers 7.12502
lthumb 18.6862 55.8445
rfemur -8.35775 17.2502 19.3617
rtibia 25.8795
rfoot -11.9866 -11.4438
rtoes -2.52941
lfemur -14.7449 10.9566 -3.1005
ltibia 57.629
lfoot -0.703119 6.05432
ltoes -0.284695
374
root -2.51479 18.6225 2.21447 -5.6878 7.50924 -0.832469
lowerback 6.99785 -1.62012 -0.925798
upperback 1.00314 -2.23133 -0.200033
thorax -2.85782 -1.10111 0.521017
lowerneck -0.0611907 -9.93137 -10.6084
upperneck 11.7355 -13.7393 6.52029
head 4.72163 -6.94752 3.00068
rclavicle -6.05128e-014 -5.96354e-016
rhumerus 18.9041 -2.83085 -36.38
rradius 29.9738
rwrist 15.6612
rhand -15.1989 1.68027
rfingers 7.12502
rthumb 10.9729 -28.013
lclavicle -6.05128e-014 -5.96354e-016
lhumerus 10.3708 0.0484348 38.2065
lradius 34.5318
lwrist 0.195848
lhand -7.77165 26.203
lfingers 7.12502
lthumb 18.1285 55.3781
rfemur -7.96115 17.4523 19.4573
rtibia 25.8616
rfoot -12.13 -11.5587
rtoes -2.70563
lfemur -15.0246 11.3185 -3.00636
ltibia 58.7767
lfoot -1.27941 5.49106
ltoes -1.17129
375
root -2.52758 18.6295 2.25395 -5.69575 7.40768 -0.634931
lowerback 6.97419 -1.63375 -1.06339
upperback 0.823253 -2.26328 -0.254437
thorax -3.0268 -1.11407 0.547775
lowerneck 0.270342 -9.79295 -10.6581
upperneck 11.6244 -13.5711 6.46785
head 4.61784 -6.87703 3.02583
rclavicle 8.70304e-015 -4.17448e-015
rhumerus 19.7704 -5.25461 -35.3464
rradius 30.5738
rwrist 15.7766
rhand -15.7736 1.41387
rfingers 7.12502
rthumb 10.4186 -28.308
lclavicle 8.70304e-015 -4.17448e-015
lhumerus 10.9481 1.73556 36.4908
lradius 35.2994
lwrist 0.00842628
lhand -8.12149 25.895
lfingers 7.12502
lthumb 17.7919 55.1011
rfemur -7.77097 17.587 19.3679
rtibia 25.8461
rfoot -12.2593 -11.5548
rtoes -2.36114
lfemur -15.4799 11.6385 -3.08029
ltibia 59.9235
lfoot -1.93366 4.79514
ltoes -2.55355
376
root -2.54031 18.6321 2.2925 -5.75861 7.15252 -0.453078
lowerback 7.06483 -1.58332 -1.15398
upperback 0.674328 -2.20921 -0.345103
thorax -3.23241 -1.08448 0.505837
lowerneck 0.370849 -9.72664 -10.5814
upperneck 11.6312 -13.478 6.32438
head 4.58035 -6.83709 2.98388
rclavicle 2.52581e-014 -5.96354e-016
rhumerus 20.5774 -7.85807 -34.5429
rradius 31.2012
rwrist 15.9526
rhand -16.3897 1.34168
rfingers 7.12502
rthumb 9.82416 -28.4091
lclavicle 2.52581e-014 -5.96354e-016
lhumerus 11.5523 3.29798 34.7308
lradius 36.1468
lwrist -0.0199669
lhand -7.95647 25.7582
lfingers 7.12502
lthumb 17.9507 54.9498
rfemur -7.5546 17.7597 19.3243
rtibia 25.827
rfoot -12.3092 -11.5155
rtoes -2.19003
lfemur -15.7917 12.0375 -3.06809
ltibia 61.0586
lfoot -2.58556 4.15962
ltoes -3.19946
377
root -2.55233 18.6379 2.33113 -5.87591 6.86636 -0.327715
lowerback 7.21235 -1.536 -1.22288
upperback 0.588185 -2.1572 -0.406182
thorax -3.40469 -1.05636 0.482653
lowerneck 0.282365 -9.67036 -10.5287
upperneck 11.6919 -13.3887 6.23786
head 4.59642 -6.79349 2.95073
rclavicle 4.14155e-014 1.59028e-014
rhumerus 21.418 -10.4627 -33.7927
rradius 31.9193
rwrist 16.0102
rhand -17.0043 1.48826
rfingers 7.12502
rthumb 9.23124 -28.2897
lclavicle 4.14155e-014 1.59028e-014
lhumerus 12.1416 4.8617 32.9563
lradius 36.9725
lwrist 0.122631
lhand -7.58298 25.5807
lfingers 7.12502
lthumb 18.3101 54.7389
rfemur -7.26599 17.9439 19.3674
rtibia 25.7731
rfoot -12.3283 -11.5613
rtoes -2.65227
lfemur -16.0228 12.4674 -2.96081
ltibia 62.1582
lfoot -3.08566 3.76609
ltoes -3.86997
